<svg xmlns="http://www.w3.org/2000/svg" xml:space="preserve" width="1400" height="980"><path fill="#FFD1A9" d="M0 0h1399.931v979.957H0z"/><path fill="#7AE3FF" d="M923.809 81.83h340.104v498.023H923.809z"/><path fill="#223F5A" d="M879.262 578.261h412.321v20.695H879.262z"/><path fill="#FFF" d="M929.421 559.159 909.364 95.083h340.396z" opacity=".29"/><path fill="#223F5A" d="M1263.912 579.853H908.729V76h355.183zm-334.491-20.694h313.797V96.694H929.421z"/><path fill="#223F5A" d="M1075.972 95.294h20.694v474.21h-20.694z"/><path fill="#FFF" d="m538.453 147.552-13.086 23.921-23.915 13.079 23.915 13.078 13.086 23.915 13.079-23.915 23.913-13.078-23.913-13.079zM774.529 192.138l-6.447 11.778-11.772 6.436 11.772 6.44 6.447 11.775 6.445-11.775 11.765-6.44-11.765-6.436zM1146.801 471.764l-6.447 11.778-11.773 6.436 11.773 6.44 6.447 11.775 6.444-11.775 11.766-6.44-11.766-6.436zM491.924 96.386l-7.88 14.402-14.401 7.872 14.401 7.881 7.88 14.401 7.881-14.401 14.394-7.881-14.394-7.872zM1200.348 377.818l-7.88 14.403-14.402 7.872 14.402 7.881 7.88 14.401 7.881-14.401 14.394-7.881-14.394-7.872zM180.121 597.299l-7.881 14.402-14.402 7.872 14.402 7.881 7.881 14.401 7.88-14.401 14.394-7.881-14.394-7.872z"/><path fill="#B89100" d="M1219.403 979.957c-7.248-27.956-14.433-55.93-21.673-83.818l22.083 83.818zM1197.73 896.139l-16.882-64.089c5.719 21.274 11.321 42.656 16.882 64.089"/><path fill="#6B6331" d="m1200.139 979.957-37.693-143.061 36.8-9.694 40.246 152.755z"/><path fill="#B89100" d="m216.52 832.05-33.869 128.557"/><path fill="#6B6331" d="m157.876 979.957 40.242-152.755 36.801 9.694-37.693 143.061z"/><path fill="#FFF" d="M162.262 192.377c0-47.64 38.618-86.258 86.256-86.258a85.95 85.95 0 0 1 33.984 6.966c28.811 14.707 48.6 44.661 48.6 79.169 0 35.649-21.117 66.44-51.486 80.578a86 86 0 0 1-31.098 5.803c-47.638 0-86.256-38.618-86.256-86.258"/><path fill="#354350" d="M133.755 192.254c0 59.821 48.677 108.494 108.503 108.494 59.82 0 108.486-48.673 108.486-108.494 0-59.827-48.666-108.497-108.486-108.497-59.826 0-108.503 48.67-108.503 108.497m19.646 0c0-48.992 39.861-88.851 88.856-88.851 48.982 0 88.844 39.858 88.844 88.851 0 48.99-39.861 88.845-88.844 88.845-48.994 0-88.856-39.855-88.856-88.845"/><path fill="#2B3844" d="M236.639 200.452h59.131v-11.223h-47.903v-70.565h-11.228z"/><path fill="#FFF" d="m186.758 228.328 56.841-31.024-2.692-4.927-56.844 31.02z"/><path fill="#2B3844" d="M239.44 259.892h5.617v8.002h-5.617zM162.262 192.034h9.35v5.614h-9.35zM315.001 192.034h8.417v5.614h-8.417zM231.963 194.845c0 5.682 4.607 10.289 10.295 10.289 5.683 0 10.29-4.607 10.29-10.289 0-5.688-4.607-10.297-10.29-10.297-5.688 0-10.295 4.609-10.295 10.297"/><path fill="#D6D6D6" d="M242.258 103.403a88.2 88.2 0 0 1 40.244 9.682 85.95 85.95 0 0 0-33.984-6.966c-47.638 0-86.256 38.618-86.256 86.258s38.618 86.258 86.256 86.258a86 86 0 0 0 31.098-5.803 88.3 88.3 0 0 1-37.357 8.267c-48.995 0-88.856-39.854-88.856-88.845-.002-48.992 39.86-88.851 88.855-88.851"/><path fill="#ABADAF" d="M658.396 693.055h75.673l1.044 6.302-77.977 1.305z"/><path fill="#CACBCD" d="m644.776 775.266 12.36-74.604 77.977-1.305 12.581 75.909z"/><path fill="#FFF" d="M1013.879 648.652v29.603c0 8.176-6.621 14.8-14.795 14.8H400.858c-8.175 0-14.808-6.624-14.808-14.8v-29.603z"/><path fill="#354350" d="M386.051 315.548c0-8.169 6.633-14.8 14.808-14.8h598.226c8.174 0 14.795 6.631 14.795 14.8v333.104H386.051z"/><path fill="#2B3844" d="M999.084 648.652a2.47 2.47 0 0 0 2.463-2.473V315.548a2.465 2.465 0 0 0-2.463-2.464H400.858a2.474 2.474 0 0 0-2.466 2.464V646.18a2.48 2.48 0 0 0 2.466 2.473z"/><path fill="#FFF" d="M409.498 324.186H990.45v313.357H409.498z"/><path fill="#354350" d="M688.797 672.829c0 6.167 5.002 11.171 11.17 11.171 6.182 0 11.176-5.004 11.176-11.171 0-6.169-4.994-11.172-11.176-11.172-6.168 0-11.17 5.003-11.17 11.172"/><path fill="#FFF" d="M578.988 784.141c0-9.289 7.527-16.817 16.824-16.817h208.326c9.285 0 16.812 7.528 16.812 16.817v7.498H578.988z"/><path fill="#E6E6E6" d="M857.793 342.091H973.86v277.486H857.793zM716.491 342.091h116.067v277.486H716.491zM575.189 342.091h116.066v277.486H575.189zM433.887 342.091h116.067v277.486H433.887z"/><path fill="#FFE867" d="M857.793 342.091H973.86v35.998H857.793z"/><path fill="#B2E700" d="M716.491 342.091h116.067v35.998H716.491z"/><path fill="#2AABFF" d="M575.189 342.091h116.067v35.998H575.189z"/><path fill="#FF5F50" d="M433.888 342.091h116.067v35.998H433.888z"/><path fill="#A38100" d="M1314.974 830.569H82.395"/><path fill="#574E28" d="M82.395 810.67h1232.579v39.799H82.395z"/><path fill="#B89100" d="M1343.95 811.539H53.415"/><path fill="#6B6331" d="M53.415 791.639H1343.95v39.8H53.415z"/><path fill="#467B25" d="M293.304 679.465c.341-1.146 33.536-115.808-37.84-219.836-58.977-85.955-43.297-116.437-32.922-136.604 1.873-3.647 3.649-7.091 4.927-10.586l-10.025-3.677c-1.055 2.871-2.603 5.886-4.398 9.375-11.541 22.428-28.976 56.318 33.609 147.535 68.405 99.701 36.748 209.627 36.417 210.727z"/><path fill="#BAEF48" d="M145.645 233.358s78.72 6.578 77.245 77.835c0 0-70.911 22.195-77.245-77.835M170.002 474.629s72.997-30.172 104.299 33.853c0-.001-52.883 52.187-104.299-33.853"/><path fill="#8FB837" d="M169.661 401.576s45.879-12.397 59.628 28.214c0 0-35.561 27.078-59.628-28.214M268.523 267.553s-3.814 45.604-45.091 44.746c.001 0-12.868-41.082 45.091-44.746M325.068 478.963s2.246 45.714-38.793 50.316c0 0-18.171-39.02 38.793-50.316"/><path fill="#BAEF48" d="M299.214 333.943s4.112 83.874-71.18 92.329c0 0-33.36-71.605 71.18-92.329"/><path fill="#FFF" d="M515.113 797.214c-16.48 0-29.892-13.408-29.892-29.891s13.411-29.892 29.892-29.892c16.479 0 29.891 13.408 29.891 29.892 0 16.483-13.412 29.891-29.891 29.891m0-53.141c-12.822 0-23.25 10.43-23.25 23.25s10.428 23.25 23.25 23.25c12.82 0 23.245-10.431 23.245-23.25s-10.424-23.25-23.245-23.25"/><path fill="#FFF" d="M438.658 816.643h36.396c17.297 0 15.636-15.634 15.636-15.634v-89.316h-67.998c-.059.641-.095 1.29-.095 1.946v89.386c0 6.013 2.674 11.387 6.882 15.039 4.279-1.815 9.179-1.421 9.179-1.421"/><path fill="#EBEBEC" d="M512.171 711.692H490.69v89.316s1.661 15.634-15.636 15.634h-36.396s-4.9-.394-9.18 1.421c3.499 3.038 8.051 4.891 13.045 4.891h49.816c11.008 0 19.927-8.923 19.927-19.93v-89.386a20 20 0 0 0-.095-1.946"/><path fill="#0085B1" d="M437.885 718.442h19.94v21.908h-19.94z"/><path fill="#FFF845" d="M442.096 721.207h10.913v15.212h-10.913z"/><path d="M447.13 711.692h.845v6.75h-.845z"/><path fill="#005A73" d="M1223.729 795.729c0 5.889 4.679 10.653 10.438 10.653h38.655c5.771 0 10.447-4.765 10.447-10.653V605.594c0-5.882-4.676-10.65-10.447-10.65h-38.655c-5.759 0-10.438 4.769-10.438 10.65z"/><path fill="#FFF" d="M1246.979 773.369a6.517 6.517 0 0 0 6.52 6.522 6.52 6.52 0 0 0 6.525-6.522V627.954a6.523 6.523 0 0 0-6.525-6.52 6.52 6.52 0 0 0-6.52 6.52z"/><path fill="#2AABFF" d="M1154.578 795.729c0 5.889 4.669 10.653 10.444 10.653h38.65c5.765 0 10.448-4.765 10.448-10.653V605.594c0-5.882-4.684-10.65-10.448-10.65h-38.65c-5.775 0-10.444 4.769-10.444 10.65z"/><path fill="#FFF" d="M1177.827 773.369a6.523 6.523 0 0 0 6.52 6.522 6.52 6.52 0 0 0 6.524-6.522V627.954a6.523 6.523 0 0 0-13.044 0z"/><path fill="#FFE867" d="M1085.422 795.729c0 5.889 4.681 10.653 10.45 10.653h38.647c5.769 0 10.447-4.765 10.447-10.653V605.594c0-5.882-4.679-10.65-10.447-10.65h-38.647c-5.77 0-10.45 4.769-10.45 10.65z"/><path fill="#FFF" d="M1108.671 773.369a6.52 6.52 0 0 0 6.525 6.522 6.52 6.52 0 0 0 6.522-6.522V627.954a6.52 6.52 0 0 0-6.522-6.52 6.52 6.52 0 0 0-6.525 6.52z"/><path fill="#FFE867" d="M1066.857 805.989c5.879 0 10.646-4.679 10.646-10.453v-38.645c0-5.771-4.768-10.452-10.646-10.452h-190.13c-5.889 0-10.66 4.681-10.66 10.452v38.645c0 5.774 4.771 10.453 10.66 10.453z"/><path fill="#FFF" d="M1044.494 782.738a6.52 6.52 0 0 0 6.519-6.525 6.52 6.52 0 0 0-6.519-6.521H899.079a6.52 6.52 0 0 0-6.525 6.521 6.523 6.523 0 0 0 6.525 6.525z"/><path fill="#58595B" d="M106.091 746.01c0 19.66 8.66 37.295 22.371 49.304h43.149V680.489c-36.186 0-65.52 29.335-65.52 65.521"/><path fill="#4C4A4D" d="M171.611 680.489v114.824h43.149c13.711-12.009 22.371-29.644 22.371-49.304.001-36.185-29.333-65.52-65.52-65.52"/><path fill="#6E6F73" d="M216.424 741.869c0 24.75-20.063 44.814-44.81 44.814-24.756 0-44.815-20.064-44.815-44.814 0-24.749 20.06-44.818 44.815-44.818 24.747 0 44.81 20.069 44.81 44.818"/><path fill="#434445" d="M206.435 741.869c0 19.23-15.59 34.82-34.82 34.82-19.236 0-34.822-15.59-34.822-34.82 0-19.229 15.586-34.823 34.822-34.823 19.23 0 34.82 15.594 34.82 34.823"/><path fill="#343635" d="M200.14 741.869c0 15.752-12.774 28.524-28.525 28.524-15.757 0-28.525-12.772-28.525-28.524s12.769-28.527 28.525-28.527c15.75 0 28.525 12.775 28.525 28.527"/><ellipse cx="171.614" cy="741.869" fill="#5A5B5D" rx="19.11" ry="19.104"/><path fill="#6D6E72" d="M184.874 741.869c0 7.326-5.939 13.26-13.26 13.26-7.326 0-13.262-5.934-13.262-13.26 0-7.323 5.936-13.263 13.262-13.263 7.321 0 13.26 5.94 13.26 13.263"/><path fill="#4C4A4D" d="M151.121 795.313h40.987v7.596h-40.987z"/><path fill="#58595B" d="M207.736 806.159a3.25 3.25 0 0 1-3.25 3.25h-65.75a3.25 3.25 0 1 1 0-6.5h65.75a3.25 3.25 0 0 1 3.25 3.25"/><path fill="#EB5749" d="M232.492 714.817h107.432l-1.69 14.522-103.421 5.427z"/><path fill="#FF5F50" d="m338.234 729.339-8.99 77.309h-86.072l-8.359-71.882zM216.933 674.671h142.519l-7.03 51.182h-129.21z"/></svg>