<svg xmlns="http://www.w3.org/2000/svg" xmlns:xlink="http://www.w3.org/1999/xlink" xml:space="preserve" id="Layer_1" x="0" y="0" version="1.1" viewBox="0 0 120 120"><style>.st1,.st2,.st3,.st4,.st5,.st6{clip-path:url(#SVGID_2_);fill-rule:evenodd;clip-rule:evenodd;fill:#ccc}.st2,.st3,.st4,.st5,.st6{fill:#8bd6d6}.st3,.st4,.st5,.st6{fill:#ffc}.st4,.st5,.st6{fill:#666}.st5,.st6{fill:#999}.st6{fill:#b3b3b3}.st7{fill:#666}.st7,.st8,.st9{clip-path:url(#SVGID_2_)}.st8{fill-rule:evenodd;clip-rule:evenodd;fill:#e6e6e6}.st9{fill:#4d4d4d}.st10,.st12,.st9{fill-rule:evenodd;clip-rule:evenodd}.st10{clip-path:url(#SVGID_2_);fill:#f9c}.st12{opacity:.23;fill:#666}.st12,.st13,.st14{clip-path:url(#SVGID_2_)}.st13{fill-rule:evenodd;clip-rule:evenodd;fill:#f4bb90}.st14{fill:#633}.st14,.st15,.st16{fill-rule:evenodd;clip-rule:evenodd}.st15{clip-path:url(#SVGID_2_);fill:#cf6}.st16{fill:#093}.st16,.st17,.st18{clip-path:url(#SVGID_2_)}.st17{fill:none;stroke:#093;stroke-width:.216;stroke-linecap:round;stroke-linejoin:round;stroke-miterlimit:2.6131}.st18{fill-rule:evenodd;clip-rule:evenodd;fill:#896745}</style><defs><path id="SVGID_1_" d="M0 0h120v120H0z"/></defs><clipPath id="SVGID_2_"><use xlink:href="#SVGID_1_" style="overflow:visible"/></clipPath><path d="M0 0h120v120H0z" style="clip-path:url(#SVGID_2_);fill-rule:evenodd;clip-rule:evenodd;fill:#f7f6e6"/><path d="M104.1 110.9c-3 3.7-8.5 4.3-12.2 1.2-3.7-3-4.3-8.5-1.2-12.2 3-3.7 8.5-4.3 12.2-1.2 3.7 3 4.2 8.5 1.2 12.2" class="st1"/><path d="M13.1 55.4h59v36.7c0 3.5-2.9 6.4-6.4 6.4H19.5c-3.5 0-6.4-2.9-6.4-6.4z" class="st2"/><path d="M21.2 76.9h1.1c.6 0 1.1.5 1.1 1.1v.7c0 .6-.5 1.1-1.1 1.1h-1.1c-.6 0-1.1-.5-1.1-1.1V78c.1-.7.5-1.1 1.1-1.1M25.1 76.9h1.1c.6 0 1.1.5 1.1 1.1v.7c0 .6-.5 1.1-1.1 1.1h-1.1c-.6 0-1.1-.5-1.1-1.1V78c0-.7.5-1.1 1.1-1.1M29 76.9h1.1c.6 0 1.1.5 1.1 1.1v.7c0 .6-.5 1.1-1.1 1.1H29c-.6 0-1.1-.5-1.1-1.1V78c0-.7.5-1.1 1.1-1.1M32.9 76.9H34c.6 0 1.1.5 1.1 1.1v.7c0 .6-.5 1.1-1.1 1.1h-1.1c-.6 0-1.1-.5-1.1-1.1V78c0-.7.5-1.1 1.1-1.1M36.7 76.9h1.1c.6 0 1.1.5 1.1 1.1v.7c0 .6-.5 1.1-1.1 1.1h-1.1c-.6 0-1.1-.5-1.1-1.1V78c.1-.7.5-1.1 1.1-1.1M40.6 76.9h1.1c.6 0 1.1.5 1.1 1.1v.7c0 .6-.5 1.1-1.1 1.1h-1.1c-.6 0-1.1-.5-1.1-1.1V78c0-.7.5-1.1 1.1-1.1M44.5 76.9h1.1c.6 0 1.1.5 1.1 1.1v.7c0 .6-.5 1.1-1.1 1.1h-1.1c-.6 0-1.1-.5-1.1-1.1V78c0-.7.5-1.1 1.1-1.1M48.3 76.9h1.1c.6 0 1.1.5 1.1 1.1v.7c0 .6-.5 1.1-1.1 1.1h-1.1c-.6 0-1.1-.5-1.1-1.1V78c.1-.7.6-1.1 1.1-1.1M52.2 76.9h1.1c.6 0 1.1.5 1.1 1.1v.7c0 .6-.5 1.1-1.1 1.1h-1.1c-.6 0-1.1-.5-1.1-1.1V78c0-.7.5-1.1 1.1-1.1M56.1 76.9h1.1c.6 0 1.1.5 1.1 1.1v.7c0 .6-.5 1.1-1.1 1.1h-1.1c-.6 0-1.1-.5-1.1-1.1V78c0-.7.5-1.1 1.1-1.1M60 76.9h1.1c.6 0 1.1.5 1.1 1.1v.7c0 .6-.5 1.1-1.1 1.1H60c-.6 0-1.1-.5-1.1-1.1V78c0-.7.5-1.1 1.1-1.1M63.8 76.9H65c.6 0 1.1.5 1.1 1.1v.7c0 .6-.5 1.1-1.1 1.1h-1.1c-.6 0-1.1-.5-1.1-1.1V78c0-.7.4-1.1 1-1.1M19.4 80.6h.8c.7 0 1.2.6 1.2 1.2v.8c0 .7-.6 1.2-1.2 1.2h-.8c-.7 0-1.2-.6-1.2-1.2v-.8c-.1-.6.5-1.2 1.2-1.2M23.2 80.6h.8c.7 0 1.2.6 1.2 1.2v.8c0 .7-.6 1.2-1.2 1.2h-.8c-.7 0-1.2-.6-1.2-1.2v-.8c-.1-.6.5-1.2 1.2-1.2M27 80.6h.8c.7 0 1.2.6 1.2 1.2v.8c0 .7-.6 1.2-1.2 1.2H27c-.7 0-1.2-.6-1.2-1.2v-.8c-.1-.6.5-1.2 1.2-1.2M30.8 80.6h.8c.7 0 1.2.6 1.2 1.2v.8c0 .7-.6 1.2-1.2 1.2h-.8c-.7 0-1.2-.6-1.2-1.2v-.8c-.1-.6.5-1.2 1.2-1.2M34.6 80.6h.8c.7 0 1.2.6 1.2 1.2v.8c0 .7-.6 1.2-1.2 1.2h-.8c-.7 0-1.2-.6-1.2-1.2v-.8c0-.6.5-1.2 1.2-1.2M38.4 80.6h.8c.7 0 1.2.6 1.2 1.2v.8c0 .7-.6 1.2-1.2 1.2h-.8c-.7 0-1.2-.6-1.2-1.2v-.8c0-.6.5-1.2 1.2-1.2M42.2 80.6h.8c.7 0 1.2.6 1.2 1.2v.8c0 .7-.6 1.2-1.2 1.2h-.8c-.7 0-1.2-.6-1.2-1.2v-.8c0-.6.5-1.2 1.2-1.2M46 80.6h.8c.7 0 1.2.6 1.2 1.2v.8c0 .7-.6 1.2-1.2 1.2H46c-.7 0-1.2-.6-1.2-1.2v-.8c0-.6.5-1.2 1.2-1.2M49.8 80.6h.8c.7 0 1.2.6 1.2 1.2v.8c0 .7-.6 1.2-1.2 1.2h-.8c-.7 0-1.2-.6-1.2-1.2v-.8c0-.6.6-1.2 1.2-1.2M53.7 80.6h.8c.7 0 1.2.6 1.2 1.2v.8c0 .7-.6 1.2-1.2 1.2h-.8c-.7 0-1.2-.6-1.2-1.2v-.8c-.1-.6.5-1.2 1.2-1.2M57.5 80.6h.8c.7 0 1.2.6 1.2 1.2v.8c0 .7-.6 1.2-1.2 1.2h-.8c-.7 0-1.2-.6-1.2-1.2v-.8c-.1-.6.5-1.2 1.2-1.2M61.3 80.6h.8c.7 0 1.2.6 1.2 1.2v.8c0 .7-.6 1.2-1.2 1.2h-.8c-.7 0-1.2-.6-1.2-1.2v-.8c-.1-.6.5-1.2 1.2-1.2M65.1 80.6h.8c.7 0 1.2.6 1.2 1.2v.8c0 .7-.6 1.2-1.2 1.2h-.8c-.7 0-1.2-.6-1.2-1.2v-.8c-.1-.6.5-1.2 1.2-1.2M20.4 84.6h.8c.7 0 1.2.6 1.2 1.2v.8c0 .7-.6 1.2-1.2 1.2h-.8c-.7 0-1.2-.6-1.2-1.2v-.8c-.1-.7.5-1.2 1.2-1.2M24.2 84.6h.8c.7 0 1.2.6 1.2 1.2v.8c0 .7-.6 1.2-1.2 1.2h-.8c-.7 0-1.2-.6-1.2-1.2v-.8c-.1-.7.5-1.2 1.2-1.2M28 84.6h.8c.7 0 1.2.6 1.2 1.2v.8c0 .7-.6 1.2-1.2 1.2H28c-.7 0-1.2-.6-1.2-1.2v-.8c-.1-.7.5-1.2 1.2-1.2M31.8 84.6h.8c.7 0 1.2.6 1.2 1.2v.8c0 .7-.6 1.2-1.2 1.2h-.8c-.7 0-1.2-.6-1.2-1.2v-.8c0-.7.5-1.2 1.2-1.2M35.6 84.6h.8c.7 0 1.2.6 1.2 1.2v.8c0 .7-.6 1.2-1.2 1.2h-.8c-.7 0-1.2-.6-1.2-1.2v-.8c0-.7.5-1.2 1.2-1.2M39.4 84.6h.8c.7 0 1.2.6 1.2 1.2v.8c0 .7-.6 1.2-1.2 1.2h-.8c-.7 0-1.2-.6-1.2-1.2v-.8c0-.7.5-1.2 1.2-1.2M43.2 84.6h.8c.7 0 1.2.6 1.2 1.2v.8c0 .7-.6 1.2-1.2 1.2h-.8c-.7 0-1.2-.6-1.2-1.2v-.8c0-.7.5-1.2 1.2-1.2M47 84.6h.8c.7 0 1.2.6 1.2 1.2v.8c0 .7-.6 1.2-1.2 1.2H47c-.7 0-1.2-.6-1.2-1.2v-.8c0-.7.6-1.2 1.2-1.2M50.9 84.6h.8c.7 0 1.2.6 1.2 1.2v.8c0 .7-.6 1.2-1.2 1.2h-.8c-.7 0-1.2-.6-1.2-1.2v-.8c-.1-.7.5-1.2 1.2-1.2M54.7 84.6h.8c.7 0 1.2.6 1.2 1.2v.8c0 .7-.6 1.2-1.2 1.2h-.8c-.7 0-1.2-.6-1.2-1.2v-.8c-.1-.7.5-1.2 1.2-1.2M58.5 84.6h.8c.7 0 1.2.6 1.2 1.2v.8c0 .7-.6 1.2-1.2 1.2h-.8c-.7 0-1.2-.6-1.2-1.2v-.8c-.1-.7.5-1.2 1.2-1.2M62.3 84.6h.8c.7 0 1.2.6 1.2 1.2v.8c0 .7-.6 1.2-1.2 1.2h-.8c-.7 0-1.2-.6-1.2-1.2v-.8c-.1-.7.5-1.2 1.2-1.2M66.1 84.6h.8c.7 0 1.2.6 1.2 1.2v.8c0 .7-.6 1.2-1.2 1.2h-.8c-.7 0-1.2-.6-1.2-1.2v-.8c-.1-.7.5-1.2 1.2-1.2M20.1 88.8h.8c.7 0 1.2.6 1.2 1.2v.8c0 .7-.6 1.2-1.2 1.2h-.8c-.7 0-1.2-.6-1.2-1.2V90c0-.6.6-1.2 1.2-1.2M24 88.8h.8c.7 0 1.2.6 1.2 1.2v.8c0 .7-.6 1.2-1.2 1.2H24c-.7 0-1.2-.6-1.2-1.2V90c-.1-.6.5-1.2 1.2-1.2M27.8 88.8h.8c.7 0 1.2.6 1.2 1.2v.8c0 .7-.6 1.2-1.2 1.2h-.8c-.7 0-1.2-.6-1.2-1.2V90c-.1-.6.5-1.2 1.2-1.2M31.6 88.8h.8c.7 0 1.2.6 1.2 1.2v.8c0 .7-.6 1.2-1.2 1.2h-.8c-.7 0-1.2-.6-1.2-1.2V90c-.1-.6.5-1.2 1.2-1.2M54.4 88.8h.8c.7 0 1.2.6 1.2 1.2v.8c0 .7-.6 1.2-1.2 1.2h-.8c-.7 0-1.2-.6-1.2-1.2V90c0-.6.6-1.2 1.2-1.2M58.3 88.8h.7c.7 0 1.2.6 1.2 1.2v.8c0 .7-.6 1.2-1.2 1.2h-.8c-.7 0-1.2-.6-1.2-1.2V90c0-.6.6-1.2 1.3-1.2M62.1 88.8h.8c.7 0 1.2.6 1.2 1.2v.8c0 .7-.6 1.2-1.2 1.2h-.8c-.7 0-1.2-.6-1.2-1.2V90c-.1-.6.5-1.2 1.2-1.2M65.9 88.8h.8c.7 0 1.2.6 1.2 1.2v.8c0 .7-.6 1.2-1.2 1.2h-.8c-.7 0-1.2-.6-1.2-1.2V90c-.1-.6.5-1.2 1.2-1.2" class="st3"/><path d="M13.1 55.4h59v15.9h-59z" class="st1"/><path d="M13.3 39.3H72v16.2H13.3z" class="st4"/><path d="M11.5 43.5h1.8v7.9h-1.8zM13.3 46.3H72v2.1H13.3z" class="st5"/><path d="M23.4 45.2h3.2c.7 0 1.3.6 1.3 1.3v1.7c0 .7-.6 1.3-1.3 1.3h-3.2c-.7 0-1.3-.6-1.3-1.3v-1.7c0-.7.6-1.3 1.3-1.3M55.9 45.2h3.2c.7 0 1.3.6 1.3 1.3v1.7c0 .7-.6 1.3-1.3 1.3h-3.2c-.7 0-1.3-.6-1.3-1.3v-1.7c0-.7.6-1.3 1.3-1.3M72.1 43.5h2v7.9h-2zM74.1 44.6h2v5.5h-2zM76.1 46.2h2v2.4h-2zM78.1 43.8h2v4.8h-2z" class="st5"/><path d="M7.9 45.7h3.6v3.4H7.9zM6.1 45.7h1.8v20.4H6.1z" class="st6"/><path d="M13.1 71.4h59v2.1h-59z" class="st5"/><path d="M42.4 55.4c0-.1.1-.3.3-.3s.3.1.3.3V66c0 .1-.1.3-.3.3s-.3-.1-.3-.3z" class="st7"/><path d="M42.4 55.5c0-.1.1-.3.2-.3s.3.1.3.2l1.9 10.5c0 .1-.1.3-.2.3s-.3-.1-.3-.2z" class="st7"/><path d="M42.5 55.5c0-.1 0-.3.1-.3s.3 0 .3.1l3.8 10.2c0 .1 0 .3-.1.3s-.3 0-.3-.1z" class="st7"/><path d="M42.5 55.5c-.1-.1 0-.3.1-.3.1-.1.3 0 .3.1l5.6 9.7c.1.1 0 .3-.1.3-.1.1-.3 0-.3-.1z" class="st7"/><path d="M42.5 55.6c-.1-.1-.1-.3 0-.4s.3-.1.4 0l7.3 9.1c.1.1.1.3 0 .4s-.3.1-.4 0z" class="st7"/><path d="M42.5 55.6c-.1-.1-.1-.3 0-.4s.3-.1.4 0l8.8 8.2c.1.1.1.3 0 .4s-.3.1-.4 0z" class="st7"/><path d="M42.5 55.6c-.1-.1-.1-.2-.1-.3.1-.1.2-.1.3-.1L53 62.4c.1.1.1.2.1.3-.1.1-.2.1-.3.1z" class="st7"/><path d="M42.6 55.6c-.1-.1-.2-.2-.1-.3s.2-.2.3-.1l11.4 6c.1.1.2.2.1.3s-.2.2-.3.1z" class="st7"/><path d="M42.6 55.7c-.1 0-.2-.2-.1-.3s.2-.2.3-.1L55.1 60c.1 0 .2.2.1.3 0 .1-.2.2-.3.1z" class="st7"/><path d="M42.6 55.7c-.1 0-.2-.2-.2-.3s.2-.2.3-.2l13.1 3.4c.1 0 .2.2.2.3s-.2.2-.3.2z" class="st7"/><path d="M42.7 55.7c-.1 0-.2-.1-.2-.3 0-.1.1-.2.3-.2l13.6 2c.1 0 .2.1.2.3 0 .1-.1.2-.3.2z" class="st7"/><path d="M42.7 55.7c-.1 0-.2-.1-.2-.3 0-.1.1-.2.3-.2l13.8.5c.1 0 .2.1.2.3 0 .1-.1.2-.3.2z" class="st7"/><path d="M42.4 55.4c0-.1.1-.3.3-.3.1 0 .3.1.3.3V66c0 .1-.1.3-.3.3-.1 0-.3-.1-.3-.3z" class="st7"/><path d="M42.4 55.4c0-.1.2-.2.3-.2s.2.2.2.3L41 66c0 .1-.2.2-.3.2s-.2-.2-.2-.3z" class="st7"/><path d="M42.5 55.3c0-.1.2-.2.3-.1.1 0 .2.2.1.3l-3.8 10.2c0 .1-.2.2-.3.1-.1 0-.2-.2-.1-.3z" class="st7"/><path d="M42.5 55.3c.1-.1.2-.2.3-.1s.2.2.1.3l-5.6 9.7c-.1.1-.2.2-.3.1s-.2-.2-.1-.3z" class="st7"/><path d="M42.5 55.3c.1-.1.2-.1.4 0 .1.1.1.2 0 .4l-7.3 9.1c-.1.1-.2.1-.4 0-.1-.1-.1-.2 0-.4z" class="st7"/><path d="M42.5 55.2c.1-.1.3-.1.4 0s.1.3 0 .4L34 63.8c-.1.1-.3.1-.4 0s-.1-.3 0-.4z" class="st7"/><path d="M42.5 55.2c.1-.1.3-.1.3.1.1.1.1.3-.1.3l-10.2 7.2c-.1.1-.3.1-.3-.1-.1-.1-.1-.3.1-.3z" class="st7"/><path d="M42.6 55.2c.1-.1.3 0 .3.1.1.1 0 .3-.1.3l-11.4 6c-.1.1-.3 0-.3-.1-.1-.1 0-.3.1-.3z" class="st7"/><path d="M42.6 55.2c.1 0 .3 0 .3.1s0 .3-.1.3l-12.4 4.8c-.1 0-.3 0-.3-.1s0-.3.1-.3z" class="st7"/><path d="M42.6 55.2c.1 0 .3 0 .3.2 0 .1 0 .3-.2.3l-13.1 3.4c-.1 0-.3 0-.3-.2s0-.3.2-.3z" class="st7"/><path d="M42.7 55.2c.1 0 .3.1.3.2s-.1.3-.2.3l-13.6 2c-.1 0-.3-.1-.3-.2s.1-.3.2-.3z" class="st7"/><path d="M42.7 55.2c.1 0 .3.1.3.2s-.1.3-.2.3l-13.8.5c-.1 0-.3-.1-.3-.2s.1-.3.2-.3z" class="st7"/><path d="M7.9 61.2h1.4c.8 0 1.4.6 1.4 1.4v2.1c0 .8-.6 1.4-1.4 1.4H7.9z" class="st5"/><path d="M35.5 88.8h15.6c.7 0 1.2.6 1.2 1.2v.8c0 .7-.6 1.2-1.2 1.2H35.5c-.7 0-1.2-.6-1.2-1.2V90c-.1-.6.5-1.2 1.2-1.2" class="st3"/><path d="M81.5 50.6h32.4v40.5H81.5z" class="st8"/><path d="M83.9 56.6c-.1 0-.1-.1-.1-.1 0-.1.1-.1.1-.1h1.3l.4-.4h.2l.5.3 1.1-.6h.1l.9.6h.5l.7-.3h.1l.5.3.6-.3h.1l.6.2.5-.3h.1l.7.3h.5l.9-.6h.1l1.1.6.5-.3h.1l.4.4h.7l.2-.3h.1l1 .3.4-.3h.2l.5.3 1.1-.6h.1l.9.6h.5l.7-.3h.1l.5.3.6-.3h.1l.6.3.5-.3h.1l.7.3h.5l.9-.6h.1l1.1.6.5-.3h.1l.4.4h1.3c.1 0 .1 0 .1.1s-.1.1-.1.1h-1.4000000000000001l-.3-.3-.4.3h-.1l-1.1-.6-.9.6h-.6l-.7-.3-.5.3h-.1l-.6-.3-.6.3h-.1l-.5-.3-.6.3h-.7l-.9-.6-1.1.6h-.1l-.4-.3-.3.3h-.1l-1-.3-.2.2h-1l-.3-.3-.4.3h-.1l-1.1-.6-.9.6h-.6l-1.2-.2-.5.3h-.1l-.6-.3-.6.3h-.1l-.5-.3-.6.3h-.7l-.9-.6-1.1.6h-.1l-.4-.3-.3.3h-1.6M83.9 58.6c-.1 0-.1-.1-.1-.1 0-.1.1-.1.1-.1h1l.3-.3s.1-.1.2 0l.4.3.9-.6h.1l.7.6h.4l.6-.3h.1l.4.3.5-.2h.1l.5.2.4-.3h.1l.6.3h.4l.7-.6h.1l.9.6.4-.3h.2l.3.3h.5l.2-.3s.1-.1.1 0l.8.3.3-.3s.1-.1.2 0l.4.3.9-.6h.1l.7.6h.4l.6-.3h.1l.4.3.5-.2h.1l.5.2.4-.3h.1l.6.3h.4l.7-.6h.1l.9.6.4-.3h.2l.3.3.6-.3h.1l.2.2 1.1.1-.1-.4s.1-.1.2 0l.4.3.9-.6h.1l.7.6h1.6c.1 0 .1 0 .1.1s0 .1-.1.1h-1.7000000000000002l-.7-.6-.9.6h-.1l-.3-.3-.3.3h-.1l-1.1-.1h-.1l-.2-.2-.7.3h-.1l-.3-.3-.3.3h-.1l-.9-.6-.7.6h-.6l-.5-.3-.4.3h-.1l-.5-.2-.5.2h-.1l-.4-.3-.5.3h-.6l-.7-.6-.9.6h-.1l-.4-.3-.2.3s-.1.1-.1 0l-.8-.3-.2.2-.1.1h-.7l-.3-.3-.3.3h-.1l-.9-.6-.7.6H91l-.5-.3-.4.3H90l-.5-.2-.5.3h-.1l-.4-.3-.5.3h-.6l-.7-.6-.9.6h-.1l-.3-.3-.3.3h-1.2000000000000002M83.9 60.5c-.1 0-.1-.1-.1-.1 0-.1.1-.1.1-.1h1.3l.4-.4h.2l.5.3 1.1-.6h.1l.9.6h.5l.7-.3h.1l.5.3.6-.3h.1l.6.2.5-.3h.1l.7.3h.5l.9-.6h.1l1.1.6.5-.3h.1l.4.4h.7l.2-.3h.1l1 .3.4-.3h.2l.5.3 1.1-.6h.1l.9.6h.5l.7-.3h.1l.5.3.6-.3h.1l.6.3.3-.2h.1l.7.3h.5l.9-.6h.1l1.1.6.5-.3h.1l.4.4h1.3c.1 0 .1 0 .1.1s-.1.1-.1.1h-1.4000000000000001l-.3-.3-.4.3h-.1l-1.1-.6-.9.6h-.6l-.7-.3-.5.3h-.1l-.6-.3-.6.3h-.1l-.5-.3-.6.3h-.7l-.9-.6-1.1.6h-.1l-.4-.3-.3.3h-.1l-1-.3-.2.2h-1l-.3-.3-.4.3h-.1l-1.1-.6-.9.6H93l-1-.3-.5.3h-.1l-.6-.3-.6.3h-.1l-.5-.3-.6.3h-.7l-.9-.6-1.1.6h-.1l-.4-.3-.3.3h-1.6M83.9 62.5c-.1 0-.1-.1-.1-.1 0-.1.1-.1.1-.1h1l.3-.4s.1-.1.2 0l.4.3.9-.6h.1l.7.6h.4l.6-.3h.1l.4.3.5-.2h.1l.5.2.4-.3h.1l.6.3h.4l.7-.6h.1l.9.6.4-.3h.2l.3.3h.5l.2-.3s.1-.1.1 0l.8.3.3-.3s.1-.1.2 0l.4.3.9-.6h.1l.7.6h.4l.6-.3h.1l.4.3.5-.2h.1l.5.2.4-.3h.1l.6.3h.4l.7-.6h.1l.9.6.4-.3h.2l.3.3.6-.3h.1l.2.2 1.1.1.3-.3s.1-.1.2 0l.4.3.9-.6h.1l.7.6h1.6c.1 0 .1 0 .1.1s0 .1-.1.1h-1.7000000000000002l-.7-.6-.9.6h-.1l-.3-.3-.3.3h-.1l-1.1-.1h-.1l-.2-.2-.7.3h-.1l-.3-.3-.3.3h-.1l-.9-.6-.7.6h-.6l-.5-.3-.4.3h-.1l-.5-.2-.5.2h-.1l-.4-.3-.5.3h-.6l-.7-.6-.9.6h-.1l-.8-.2-.2.3s-.1.1-.1 0l-.8-.3-.2.2-.1.1h-.7l-.3-.3-.3.3h-.1l-.9-.6-.7.6H91l-.5-.3-.4.3H90l-.5-.2-.5.2h-.1l-.4-.3-.5.3h-.6l-.7-.6-.9.6h-.1l-.3-.3-.3.3h-1.2000000000000002M83.9 64.5c-.1 0-.1 0-.1-.1s.1-.1.1-.1h1.3l.4-.4h.2l.5.3 1.1-.6h.1l.9.6h.5l.7-.3h.1l.5.3.6-.3h.1l.6.2.5-.3h.1l.7.3h.5l.9-.6h.1l1.1.6.5-.3h.1l.4.4h.7l.2-.3h.1l1 .3.4-.3h.2l.5.3 1.1-.6h.1l.9.6h.5l.7-.3h.1l.5.3.6-.3h.1l.6.3.5-.3h.1l.7.3h.5l.9-.6h.1l1.1.6.5-.3h.1l.4.4h1.3c.1 0 .1 0 .1.1s-.1.1-.1.1h-1.4000000000000001l-.3-.3-.4.3h-.1l-1.1-.6-.9.6h-.6l-.7-.3-.5.3h-.1l-.6-.3-.6.3h-.1l-.5-.3-.6.3h-.7l-.9-.6-1.1.6h-.1l-.4-.3-.3.3h-.1l-1-.3-.2.2h-1l-.3-.3-.4.3h-.1l-1.1-.6-.9.6h-.6l-1.2-.2-.5.3h-.1l-.6-.3-.6.3h-.1l-.5-.3-.6.3h-.7l-.9-.6-1.1.6h-.1l-.4-.3-.3.3h-1.6M83.9 66.4c-.1 0-.1-.1-.1-.1 0-.1.1-.1.1-.1h1l.3-.3s.1-.1.2 0l.4.3.9-.6h.1l.7.6h.4l.6-.3h.1l.4.3.5-.2h.1l.5.2.4-.3h.1l.6.3h.4l.7-.6h.1l.9.6.4-.3h.2l.3.3h.5l.2-.3s.1-.1.1 0l.8.3.3-.3s.1-.1.2 0l.4.3.9-.6h.1l.7.6h.4l.6-.3h.1l.4.3.5-.2h.1l.5.2.4-.3h.1l.6.3h.4l.7-.6h.1l.9.6.4-.3h.2l.3.3.6-.3h.1l.2.2 1.1.1.3-.3s.1-.1.2 0l.4.3.9-.6h.1l.7.6h1.6c.1 0 .1 0 .1.1s0 .1-.1.1h-1.7000000000000002l-.7-.6-.9.6h-.1l-.3-.3-.3.3h-.1l-1.1-.1h-.1l-.2-.2-.7.3h-.1l-.3-.3-.3.3h-.1l-.9-.6-.7.6h-.6l-.5-.3-.4.3h-.1l-.5-.2-.5.2h-.1l-.4-.3-.5.3h-.6l-.7-.6-.9.6h-.1l-.8-.3-.2.3s-.1.1-.1 0l-.8-.3-.2.2-.1.1h-.7l-.3-.3-.3.3h-.1l-.9-.6-.7.6H91l-.5-.3-.4.3H90l-.5-.2-.5.3h-.1l-.4-.3-.5.2h-.6l-.7-.6-.9.6h-.1l-.3-.3-.3.3h-1.2000000000000002M83.9 68.4c-.1 0-.1 0-.1-.1s.1-.1.1-.1h1.3l.4-.4h.2l.5.3 1.1-.6h.1l.9.6h.5l.7-.3h.1l.5.3.6-.3h.1l.6.2.5-.3h.1l.7.3h.5l.9-.6h.1l1.1.6.5-.3h.1l.4.4h.7l.2-.3h.1l1 .3.4-.3h.2l.5.3 1.1-.6h.1l.9.6h.5l.7-.3h.1l.5.3.6-.3h.1l.6.3.5-.3h.1l.7.3h.5l.9-.6h.1l1.1.6.5-.3h.1l.4.4h1.3c.1 0 .1.1.1.1 0 .1-.1.1-.1.1h-1.4000000000000001l-.3-.3-.4.3h-.1l-1.1-.6-.9.6h-.6l-.7-.3-.5.3h-.1l-.6-.3-.6.3h-.1l-.5-.3-.6.3h-.7l-.9-.6-1.1.6h-.1l-.9-.4-.3.3h-.1l-1-.3-.2.2h-1l-.3-.2-.4.3h-.1l-1.1-.6-.9.6h-.6l-.7-.2-.5.3h-.1l-.6-.3-.6.3h-.1l-.5-.3-.6.3h-.7l-.9-.6-1.1.6h-.1l-.5-.4-.3.3h-1.5zM83.9 70.39999999999999c-.1 0-.1-.1-.1-.1 0-.1.1-.1.1-.1h1l.3-.3s.1-.1.2 0l.4.3.9-.6h.1l.7.6h.4l.6-.3h.1l.4.3.5-.2h.1l.5.2.4-.3h.1l.6.3h.4l.7-.6h.1l.9.6.4-.3h.2l.3.3h.5l.2-.3s.1-.1.1 0l.8.3.3-.3s.1-.1.2 0l.4.3.9-.6h.1l.7.6h.4l.6-.3h.1l.4.3.5-.2h.1l.5.2.4-.3h.1l.6.3h.4l.7-.6h.1l.9.6.4-.3h.2l.3.3.6-.3h.1l.2.2 1.1.1.3-.3s.1-.1.2 0l.4.3.9-.6h.1l.7.6h1.6c.1 0 .1 0 .1.1s0 .1-.1.1h-1.7000000000000002l-.7-.6-.9.6h-.1l-.3-.3-.3.3h-.1l-1.1-.1h-.1l-.2-.2-.7.3h-.1l-.3-.3-.3.3h-.1l-.9-.6-.7.6h-.6l-.5-.3-.4.3h-.1l-.5-.2-.5.2h-.1l-.4-.3-.5.3h-.6l-.7-.6-.9.6h-.1L96 70l-.2.3s-.1.1-.1 0l-.8-.3-.2.2-.1.1h-.7l-.3-.3-.3.3h-.1l-.9-.6-.7.6H91l-.5-.3-.4.3H90l-.5-.2-.5.3h-.1l-.4-.3-.5.3h-.6l-.7-.6-.9.6h-.1l-.3-.4-.3.3h-1.2000000000000002zM83.9 72.3c-.1 0-.1-.1-.1-.1 0-.1.1-.1.1-.1h1.3l.4-.4h.2l.5.3 1.1-.6h.1l.9.6h.5l.7-.3h.1l.5.3.6-.3h.1l.6.2.5-.3h.1l.7.3h.5l.9-.6h.1l1.1.6.5-.3h.1l.4.4h.7l.2-.3h.1l1 .3.4-.3h.2l.5.3 1.1-.6h.1l.9.6h.5l.7-.3h.1l.5.3.6-.3h.1l.6.3.5-.3h.1l.7.3h.5l.9-.6h.1l1.1.6.5-.3h.1l.4.4h1.3c.1 0 .1 0 .1.1s-.1.1-.1.1h-1.4000000000000001l-.3-.3-.4.3h-.1l-1.1-.6-.9.6h-.6L105 72l-.5.3h-.1l-.6-.3-.6.3h-.1l-.5-.3-.6.3h-.7l-.9-.6-1.1.6h-.1l-.5-.3-.3.3h-.1l-1-.3-.2.2h-1l-.3-.2-.4.3h-.1l-1.1-.6-.9.6h-.6L92 72l-.5.3h-.1l-.6-.3-.6.3h-.1l-.6-.3-.6.3h-.7l-.9-.6-1.1.6h-.1l-.4-.3-.3.3h-1.5M83.9 74.3c-.1 0-.1-.1-.1-.1 0-.1.1-.1.1-.1h1l.3-.3s.1-.1.2 0l.4.3.9-.6h.1l.7.6h.4l.6-.3h.1l.4.3.5-.2h.1l.5.2.4-.3h.1l.6.3h.4l.7-.6h.1l.9.6.4-.3h.2l.3.3h.5l.2-.3s.1-.1.1 0l.8.3.3-.3s.1-.1.2 0l.4.3.9-.6h.1l.7.6h.4l.6-.3h.1l.4.3.5-.2h.1l.5.2.4-.3h.1l.6.3h.4l.7-.6h.1l.9.6.4-.3h.2l.3.3.6-.3h.1l.2.2 1.1.1.3-.3s.1-.1.2 0l.4.3.9-.6h.1l.7.6h1.6c.1 0 .1 0 .1.1s0 .1-.1.1h-1.7000000000000002l-.7-.6-.9.6h-.1l-.3-.3-.3.3h-.1l-1.1-.1h-.1l-.2-.2-.7.3h-.1l-.3-.3-.3.3h-.1l-.9-.6-.7.6h-.6l-.5-.3-.4.3h-.1l-.5-.2-.5.2h-.1l-.9-.3-.5.3H98l-.7-.6-.9.6h-.1L96 74l-.2.3s-.1.1-.1 0l-.8-.3-.2.2-.1.1h-.7l-.3-.3-.3.3h-.1l-.9-.6-.7.6H91l-.5-.3-.4.3H90l-.5-.2-.5.2h-.1l-.4-.3-.5.3h-.6l-.7-.6-.9.6h-.1l-.3-.3-.3.3h-1.2000000000000002M83.9 76.3c-.1 0-.1 0-.1-.1s.1-.1.1-.1h1.3l.4-.4h.2l.5.3 1.1-.6h.1l.9.6h.5l.7-.3h.1l.5.3.6-.3h.1l.6.2.5-.3h.1l.7.3h.5l.9-.6h.1l1.1.6.5-.3h.1l.4.4h.7l.2-.3h.1l1 .3.4-.3h.2l.5.3 1.1-.6h.1l.9.6h.5l.7-.3h.1l.5.3.6-.3h.1l.6.3.5-.3h.1l.7.3h.5l.9-.6h.1l1.1.6.5-.3h.1l.4.4h1.3c.1 0 .1.1.1.1 0 .1-.1.1-.1.1h-1.4000000000000001l-.3-.3-.4.3h-.1l-1.1-.6-.9.6h-.6L105 76l-.5.3h-.1l-.6-.3-.6.3h-.1l-.5-.3-.6.3h-.7l-.9-.6-1.1.6h-.1l-.4-.3-.3.3h-.1l-1-.3-.2.2h-1l-.3-.3-.4.3h-.1l-1.1-.6-.9.6h-.6L92 76l-.5.3h-.1l-.7-.3-.6.3H90l-.5-.3-.6.3h-.7l-.9-.6-1.1.6h-.1l-.4-.3-.3.3h-1.5M83.9 78.3c-.1 0-.1-.1-.1-.1 0-.1.1-.1.1-.1h1l.3-.4s.1-.1.2 0l.4.3.9-.6h.1l.7.6h.4l.6-.3h.1l.4.3.5-.2h.1l.4.2.4-.3h.1l.6.3h.4l.7-.6h.1l.9.6.4-.3h.2l.2.3h.5l.2-.3s.1-.1.1 0l.8.3.3-.3s.1-.1.2 0l.4.3.9-.6h.1l.7.6h.4l.6-.3h.1l.4.3.5-.2h.1l.5.2.4-.3h.1l.6.3h.4l.7-.6h.1l.9.6.4-.3h.2l.3.3.6-.3h.1l.2.2 1.1.1.3-.3s.1-.1.2 0l.4.3.9-.6h.1l.7.6h1.6c.1 0 .1 0 .1.1s0 .1-.1.1h-1.7000000000000002l-.7-.6-.9.6h-.1l-.3-.3-.3.3h-.1l-1.1-.1h-.1l-.2-.2-.7.3h-.1l-.3-.3-.3.3h-.1l-.9-.6-.7.6h-.6l-.5-.3-.4.3h-.1l-.5-.2-.5.2h-.1l-.7-.2-.5.3H98l-.7-.6-.9.6h-.1l-.3-.4-.2.3s-.1.1-.1 0l-.8-.2-.2.2-.1.1h-.7l-.3-.3-.3.3h-.1l-.9-.6-.7.6H91l-.5-.3-.4.3H90l-.5-.3-.5.3h-.1l-.4-.3-.5.2h-.6l-.7-.6-.9.6h-.1l-.3-.3-.3.3h-1.2000000000000002zM106.2 81.2v.1m-.9-.3v.1m-2.8.6h-.2v-.2l.4-.3h.1l.2.3.3-.2h.1l.3.2.2-.3h.2l.3.3h.2l.5-.6s.1-.1.2 0l.5.5.2-.3s.1-.1.2 0l.2.3.4-.2h.1l.1.2.6.1.2-.3c0-.1.1-.1.1 0l.2.3.5-.5h.2l.5.6h1c.1 0 .1 0 .1.1s0 .1-.1.1h-1.2000000000000002l-.4-.5-.5.5h-.2l-.2-.2-.1.2-.1.1-.7-.1h-.1l-.1-.1-.4.2h-.1l-.1-.2-.2.2h-.2l-.5-.5-.4.5h-.5l-.3-.2-.2.3s-.1.1-.1 0l-.3-.2-.3.2h-.1l-.2-.3z" class="st7"/><path d="M107.3 45.8s-2 1-13.1 1l-9.4-.1v-1.8l9.4-.1c11.2 0 13.1 1 13.1 1" class="st2"/><path d="M107.3 45.8s-.3.1-1.1.3v-.6c.9.2 1.1.3 1.1.3" class="st9"/><path d="M83.2 45h1.6v1.6h-1.6z" class="st6"/><path d="M84.8 45.4H92v.5h-7.2z" class="st9"/><path d="M87.2 29.1h12.5v12.4H87.2z" class="st10"/><path d="m91.153 28.71 4.48-.42.122 1.295-4.481.419z" class="st8"/><path d="M88.3 37.3c.2-.6.3-.6.4-1.2.2-.6.2-.8.3-1.4 0-.1.1-.6.3-.6.4 1.2.2 1.8.7 2.9v.2c.1.3.1.1.1.3.3 0 1.3-2.6 1.3-3 .7 3.6.6.5 1 .6.1 0 .6.9 1-.4.3-.9-.4-1.2.3-.9.2.1 1.4.1 1.6.1 0 0 1.1-.3 1.1-.6" style="clip-path:url(#SVGID_2_);fill:none;stroke:#373435;stroke-width:.216;stroke-linecap:round;stroke-linejoin:round;stroke-miterlimit:2.6131"/><path d="m73.9 106.4-3.4-6.7s-.4-8-1.3-9.9l-.2-5.3s-.1-.8-.6-1.4-2.1-2.3-2.1-2.3-1 0-.9 1l1.4 2.1.1 3.3s-.4.9-.9-.1l-.6-3.9s-.2-1.1-1.2-2c-1-.8-2.4-1.6-2.4-1.6s-1.8-.6-1.7.5c0 0-.1.3.9 1.2s1.3 1.3 1.3 1.3.6 2.6 1 3.4-.2 1.4-.4.9l-1.6-4s-.3-1-1.2-1.7-1.5-1.1-1.5-1.1-1.6-.6-1.4.9l1.5 2.7 1.2 3.2s-.1 1.4-1.1.7l-1.7-2.8s-.9-2.3-1-2.8-1.7-1.2-1.8.4.7 5.5 1.8 7.3c0 0-.1 2.3.2 3.3s.3 1.7 0 1.5c-.2-.2-1.4-2.1-1.5-3.2s-.6-2.9-2-2.8-.8 1-1.1 2.7-.1 3.3.5 4c.5.7 1.3 2.8 1.3 3.2s4.5 4 4.5 4 3.7 1.6 4.7 3.7 2.4 5.9 2.4 5.9l2.9 8h14.6z" class="st12"/><path d="M70.4 106.4 67 99.7s-.4-8-1.3-9.9l-.2-5.3s-.1-.8-.6-1.4-2.1-2.3-2.1-2.3-1 0-.9 1l1.4 2.1.1 3.3s-.4.9-.9-.1l-.6-3.9s-.2-1.1-1.2-2c-1-.8-2.4-1.6-2.4-1.6s-1.6-.6-1.5.6c0 0-.1.3.9 1.2s1.3 1.3 1.3 1.3.6 2.6 1 3.4-.2 1.4-.4.9L58 83s-.3-1-1.2-1.7-1.5-1.1-1.5-1.1-1.6-.6-1.4.9l1.5 2.7 1.2 3.2s-.1 1.4-1.1.7l-1.7-2.8s-.9-2.3-1-2.8-1.7-1.2-1.8.4.7 5.5 1.8 7.3c0 0-.1 2.3.2 3.3s.3 1.7 0 1.5c-.2-.2-1.4-2.1-1.5-3.2s-.6-2.9-2-2.8-.8 1-1.1 2.7-.1 3.3.5 4c.5.7 1.3 2.8 1.3 3.2s4.5 4 4.5 4 3.7 1.6 4.7 3.7 2.4 5.9 2.4 5.9l2.7 8.2h14.6z" class="st13"/><path d="m19.2 105.8 3.8-6.5s.8-8 1.7-9.8l.5-5.3s.1-.8.7-1.4l2.2-2.2s1 0 .9 1l-1.5 2-.2 3.3s.3 1 .9 0L29 83s.2-1.1 1.2-1.9 2.5-1.5 2.5-1.5 1.6-.5 1.5.7c0 0 .1.3-1 1.2-1 .9-1.4 1.2-1.4 1.2s-.8 2.6-1.2 3.4.1 1.4.4.9c.2-.5 1.8-4 1.8-4s.3-1 1.3-1.7c.9-.7 1.6-1 1.6-1s1.6-.5 1.4 1l-1.7 2.6-1.3 3.1s0 1.4 1.1.7L37 85s1-2.3 1.1-2.7c.1-.5 1.7-1.1 1.7.5s-1 5.4-2.2 7.3c0 0 0 2.3-.4 3.3-.3.9-.4 1.7-.1 1.5.2-.2 1.5-2 1.7-3.1.1-1.1.7-2.8 2.1-2.7s.8 1 .9 2.8c.2 1.7-.1 3.3-.7 4s-1.5 2.7-1.5 3.1-4.7 3.8-4.7 3.8-3.8 1.4-4.9 3.5c-1.1 2-2.7 5.8-2.7 5.8l-3.1 8.4h-16z" class="st12"/><path d="m15 105.8 3.8-6.5s.8-8 1.7-9.8l.5-5.3s.1-.8.7-1.4l2.2-2.2s1 0 .9 1l-1.5 2-.3 3.3s.3 1 .9 0l.8-3.9s.2-1.1 1.2-1.9 2.5-1.5 2.5-1.5 1.6-.5 1.5.7c0 0 .1.3-1 1.2-1 .9-1.4 1.2-1.4 1.2s-.8 2.6-1.2 3.4.1 1.4.4.9c.2-.5 1.8-4 1.8-4s.3-1 1.3-1.7c.9-.7 1.6-1 1.6-1s1.6-.5 1.4 1l-1.7 2.6-1.3 3.1s0 1.4 1.1.7l1.8-2.7s1-2.3 1.1-2.7c.1-.5 1.7-1.1 1.7.5s-1 5.4-2.2 7.3c0 0 0 2.3-.4 3.3-.3.9-.4 1.7-.1 1.5.2-.2 1.5-2 1.7-3.1.1-1.1.7-2.8 2.1-2.7s.8 1 .9 2.8c.2 1.7-.1 3.3-.7 4s-1.5 2.7-1.5 3.1-4.7 3.8-4.7 3.8-3.8 1.4-4.9 3.5c-1.1 2-2.7 5.8-2.7 5.8l-3.2 8.4H4z" class="st13"/><path d="M17.2 103.1c1.8-.4 3.5.7 3.9 2.4.4 1.8-.7 3.5-2.4 3.9-1.8.4-3.5-.7-3.9-2.4s.6-3.4 2.4-3.9" class="st14"/><path d="M21.2 106.7s1.9 1.5 3.5 1.6c0 0-.2 2.7-1.5 3.4l-4.2-2.2c1.3-.5 2.1-1.6 2.2-2.8" class="st14"/><path d="M17.4 103.8c1.4-.3 2.8.5 3.1 1.9s-.5 2.8-1.9 3.1-2.8-.5-3.1-1.9c-.4-1.4.5-2.8 1.9-3.1" class="st1"/><path d="m6 10.5 12.6-1.6c.5-.1 1 .3 1.1.8l1.6 12.6c.1.5-.3 1-.8 1.1L7.8 25c-.5.1-1-.3-1.1-.8L5.1 11.6c0-.5.4-1 .9-1.1" class="st14"/><path d="m7.61 12.68 9.819-1.266 1.266 9.818L8.876 22.5z" class="st15"/><path d="M12.7 12.9c2.2-.3 4.3 1.3 4.5 3.5s-1.3 4.3-3.5 4.5c-2.2.3-4.3-1.3-4.5-3.5-.3-2.2 1.3-4.2 3.5-4.5" class="st16"/><path d="M11 19.7c-.1.1-.6.7-.6.8-.1 0-.1.1-.2.1M10.3 19.2c-.1 0-.6.1-.8.1M9.9 18.2c-.3-.1 0 0-.5-.2-.1 0-.4-.1-.5-.1q0 0 0 0h0M9.4 16.2c-.1 0-.6-.2-.7-.2M9.7 15.5c.1-.5-.4-.9-.4-1M10.8 14.4c0-.1-.1-.9-.2-1 0-.1 0-.1-.1-.2M12.2 13.8c0-.3.6-1.1.6-1.2l.1-.1M13.8 13.3c.4-.4.3-.4.8-.7.1 0 0 0 .1-.1M15.2 13.9c.2 0 1.2-.1 1.3-.2M16.4 15.2c0 .1.1.1.1.1.1.1.7.4.8.4M17 16.8c0 .2.2.2.3.4 0 0 .2.3.2.2h0M16.5 18.3c.1 0 .8.2.8.3M16.1 19.1l.2.1c.2.1.4.2.6.4M15.4 19.8c0 .2.3.5.3.6l.1.1M14.6 20.1c0 .2 0 .6.1.7v.1M13.5 20.5c0 .1-.1.7-.2.8 0 .1 0 0-.1 0M12.3 20.4c-.2 0-.2.2-.4.3l-.4.5M11.8 14c-.2-.3-.2-1.2-.2-1.3v-.1" class="st17"/><path d="M103.5 99.1c3.1 3 3.6 7.8 1.1 11.4l-1.5-1.2c1.8-2.7 1.4-6.4-.9-8.7zm-12.5.2c3-3.1 7.8-3.6 11.4-1.1l-1.2 1.5c-2.7-1.8-6.4-1.4-8.7.9zm.2 12.5c-3.1-3-3.6-7.8-1.1-11.4l1.5 1.2c-1.8 2.7-1.4 6.4.9 8.7zm12.5-.2c-3 3.1-7.8 3.6-11.4 1.1l1.2-1.5c2.7 1.8 6.4 1.4 8.7-.9z" class="st6"/><path d="M102.9 109.9c-2.5 3-7 3.5-10 1s-3.5-7-1-10 7-3.5 10-1 3.5 7 1 10" class="st4"/><path d="M41.8 5.6h70.1v3.2H41.8z" class="st14"/><path d="M45.5 15.5h30.8v15.1c0 1.6-1.3 2.9-2.9 2.9h-25c-1.6 0-2.9-1.3-2.9-2.9z" class="st18"/><path d="M45.9 14.8h30.8v15.1c0 1.6-1.3 2.9-2.9 2.9h-25c-1.6 0-2.9-1.3-2.9-2.9z" class="st3"/><path d="M46.2 14H77v15.1c0 1.6-1.3 2.9-2.9 2.9H49c-1.6 0-2.9-1.3-2.9-2.9V14z" class="st18"/><path d="M49.6 18.9h1.8v8.3h-1.8z" class="st14"/><path d="m101.3 21.9.5-.7 11.9.7.6 11.7-.6.7h-12.4z" style="clip-path:url(#SVGID_2_);fill-rule:evenodd;clip-rule:evenodd;fill:#e07fb0"/><path d="M101.8 21.2h12.4v12.5h-12.4z" class="st10"/><path d="m98.5 105-7.5 9.2-1.1-.9 7.3-9h.2c.3-.1.2-.1.1.1v.1h.1v.2c.1.1.1 0 .2 0 .1-.1.1.1.1.1.1.1 0 .1.2 0 .3 0 .4.2.4.2" class="st8"/><path d="m93 111.8-2 2.4c-.3.2-1.1-.3-1.1-.9l2-2.4z" style="clip-path:url(#SVGID_2_);fill-rule:evenodd;clip-rule:evenodd;fill:#f7c876"/><path d="M98.7 104.9s-.3.2-.4.2-.1-.2-.2-.1-.1.1-.1 0c-.1 0 0-.2-.1-.1s-.1.1-.1 0v-.2h-.1s-.1 0 0-.1c.1-.2.1-.2-.1-.1s-.2.1-.2-.1c0-.1.2-.2.2-.3l.1-.1s.1-.2.2-.1c0 .1 0 .1.1.2.1 0 .2-.1.3-.1s.2.1.2.2-.1.3 0 .4c.1 0 .1 0 .2.1s.1.1.1.2c-.2-.2-.1-.1-.1 0q0-.15 0 0" style="clip-path:url(#SVGID_2_);fill-rule:evenodd;clip-rule:evenodd;fill:#f63"/><path d="m25.2 12.3 12.5 1.9c.5.1.9.6.8 1.1l-1.9 12.5c-.1.5-.6.9-1.1.8L23 26.7c-.5-.1-.9-.6-.8-1.1l1.9-12.5c.1-.5.5-.9 1.1-.8" class="st14"/><path d="m24.64 24.559 1.52-9.783 9.781 1.52-1.52 9.782z" class="st15"/><path d="M30.9 16.5c1.4.2 2.3 2.2 2 4.4s-1.8 3.8-3.2 3.6-2.3-2.2-2-4.4 1.8-3.9 3.2-3.6" class="st16"/><path d="M28.3 22.6c-.1.1-.5.6-.6.6 0 0-.1 0-.1.1M28 21.8c-.1 0-.4.1-.6.1M28 20.2c-.2.1-.1 0-.4.1-.1 0-.3.1-.3.1q0 0 0 0h0M28.1 18.9c-.1.1-.5 0-.5 0M28.9 18.1c-.2-.5-.7-.6-.8-.8M29.6 17.8c-.1-.1-.4-.8-.5-.8-.1-.1-.1-.1-.1-.2M30.4 17.2c.1-.3.6-.9.6-1l.1-.1M31.5 17.1c.3-.3.3-.3.7-.5.1 0 0 0 .1-.1M32.2 18c.1.1.8.2.8.1M32.7 19.5c0 .1 0 .1.1.1 0 .1.3.5.4.5M32.7 21.2c0 .2.1.3.1.4s.1.3.1.3h0M32 22.5c.1.1.4.4.4.5M31.6 23.2l.1.2c.1.2.2.3.3.5M31 23.8c0 .2.1.6.1.7v.1M30.4 23.9c0 .2-.1.6-.1.7v.1M29.6 24c0 .1-.3.7-.3.7 0 .1 0 0 0 0M28.9 23.7c-.1 0-.2.1-.3.2l-.3.4M30.1 17.3c-.1-.3.2-1.2.2-1.3.1-.1 0 0 0-.1" class="st17"/></svg>